<svg xmlns="http://www.w3.org/2000/svg" xmlns:xlink="http://www.w3.org/1999/xlink" width="83" height="81" viewBox="0 0 83 81">
  <metadata><?xpacket begin="﻿" id="W5M0MpCehiHzreSzNTczkc9d"?>
<x:xmpmeta xmlns:x="adobe:ns:meta/" x:xmptk="Adobe XMP Core 5.6-c138 79.159824, 2016/09/14-01:09:01        ">
   <rdf:RDF xmlns:rdf="http://www.w3.org/1999/02/22-rdf-syntax-ns#">
      <rdf:Description rdf:about=""/>
   </rdf:RDF>
</x:xmpmeta>
                                                                                                    
                                                                                                    
                                                                                                    
                                                                                                    
                                                                                                    
                                                                                                    
                                                                                                    
                                                                                                    
                                                                                                    
                                                                                                    
                                                                                                    
                                                                                                    
                                                                                                    
                                                                                                    
                                                                                                    
                                                                                                    
                                                                                                    
                                                                                                    
                                                                                                    
                                                                                                    
                           
<?xpacket end="w"?></metadata>
<defs>
    <style>
      .cls-1 {
        fill: #fff;
        fill-rule: evenodd;
        filter: url(#filter);
      }
    </style>
    <filter id="filter" x="959" y="595" width="83" height="81" filterUnits="userSpaceOnUse">
      <feOffset result="offset" dy="10" in="SourceAlpha"/>
      <feGaussianBlur result="blur" stdDeviation="3.162"/>
      <feFlood result="flood" flood-color="#ff8b2e"/>
      <feComposite result="composite" operator="in" in2="blur"/>
      <feBlend result="blend" in="SourceGraphic"/>
      <feFlood result="flood-2" flood-color="#fff"/>
      <feComposite result="composite-2" operator="in" in2="SourceGraphic"/>
      <feBlend result="blend-2" in2="blend"/>
    </filter>
  </defs>
  <path class="cls-1" d="M1022.2,644.646h-7.18V628.44a1.96,1.96,0,0,0-3.92,0v16.206h-9.14V628.44a1.96,1.96,0,0,0-3.919,0v16.206H988.9V628.44a1.959,1.959,0,0,0-3.918,0v16.206H977.8v-3.889h3.265V628.44a5.878,5.878,0,0,1,11.755,0v12.317h1.306V628.44a5.879,5.879,0,0,1,11.758,0v12.317h1.3V628.44a5.88,5.88,0,0,1,11.76,0v12.317h3.26v3.889Zm7.19-18.15h-8.49v-3.89h4.57v-1.3H974.531v1.3H979.1v3.89h-8.49V617.42h58.778V626.5Zm1.3-10.372h-10.45v-3.335L1000,599.648l-20.245,13.141v3.335H969.306v-3.732L968,611.1v-9.232h21.429L1000,595l10.57,6.861H1032V611.1l-1.31,1.3v3.732Zm-6.53-3.889h2.62v-1.454l1.3-1.3v-3.733h-11.52l7.6,4.933v1.55Zm-50.936,0h2.613v-1.55l7.6-4.933H971.918v3.733l1.306,1.3v1.454Zm2.613,36.949h-3.919V622.606H979.1v3.89h-3.265v22.688Zm52.243,0h-3.92V626.5h-3.26v-3.89h7.18v26.578ZM1000,614.827a5.834,5.834,0,1,1,5.88-5.834A5.863,5.863,0,0,1,1000,614.827Zm0-7.778a1.945,1.945,0,1,0,1.96,1.944A1.954,1.954,0,0,0,1000,607.049Zm22.2,42.783H977.8v-3.889h44.4v3.889Zm5.23,5.186H972.571v-3.89h54.859v3.89Z" transform="translate(-959 -595)"/>
</svg>
