<svg xmlns="http://www.w3.org/2000/svg" xmlns:xlink="http://www.w3.org/1999/xlink" width="80" height="77.031" viewBox="0 0 80 77.031">
  <metadata><?xpacket begin="﻿" id="W5M0MpCehiHzreSzNTczkc9d"?>
<x:xmpmeta xmlns:x="adobe:ns:meta/" x:xmptk="Adobe XMP Core 5.6-c138 79.159824, 2016/09/14-01:09:01        ">
   <rdf:RDF xmlns:rdf="http://www.w3.org/1999/02/22-rdf-syntax-ns#">
      <rdf:Description rdf:about=""/>
   </rdf:RDF>
</x:xmpmeta>
                                                                                                    
                                                                                                    
                                                                                                    
                                                                                                    
                                                                                                    
                                                                                                    
                                                                                                    
                                                                                                    
                                                                                                    
                                                                                                    
                                                                                                    
                                                                                                    
                                                                                                    
                                                                                                    
                                                                                                    
                                                                                                    
                                                                                                    
                                                                                                    
                                                                                                    
                                                                                                    
                           
<?xpacket end="w"?></metadata>
<defs>
    <style>
      .cls-1 {
        fill: #fff;
        fill-rule: evenodd;
        filter: url(#filter);
      }
    </style>
    <filter id="filter" x="640" y="592.969" width="80" height="77.031" filterUnits="userSpaceOnUse">
      <feOffset result="offset" dy="10" in="SourceAlpha"/>
      <feGaussianBlur result="blur" stdDeviation="3.162"/>
      <feFlood result="flood" flood-color="#ff8b2e"/>
      <feComposite result="composite" operator="in" in2="blur"/>
      <feBlend result="blend" in="SourceGraphic"/>
      <feFlood result="flood-2" flood-color="#fff"/>
      <feComposite result="composite-2" operator="in" in2="SourceGraphic"/>
      <feBlend result="blend-2" in2="blend"/>
    </filter>
  </defs>
  <path class="cls-1" d="M707.4,638.64v9.411A1.945,1.945,0,0,1,705.457,650H654.84a5.774,5.774,0,0,1-5.84-5.832v-34.99a5.772,5.772,0,0,1,5.837-5.832h10.878l9.813-9.8a1.947,1.947,0,0,1,2.753,0l9.812,9.8h10.875a1.945,1.945,0,0,1,1.947,1.944v5.832h4.542a1.945,1.945,0,0,1,1.947,1.943v7.194a3.246,3.246,0,0,1,2.6,3.174V633.8A5.825,5.825,0,0,1,707.4,638.64Zm-52.567-31.411a1.944,1.944,0,1,0,0,3.888h3.088l3.894-3.888h-6.985Zm31.075-.568,0,0-9-8.992-9,8.992,0,0-4.462,4.456H667l5.781-5.775a2.009,2.009,0,0,1,2.755,0,1.578,1.578,0,0,0,2.752,0,1.948,1.948,0,0,1,1.377-.57h0a1.946,1.946,0,0,1,1.378.573l5.751,5.773h3.576Zm-13.4,4.456h8.8L679.5,609.3a5.074,5.074,0,0,1-2.584.731h0a5.077,5.077,0,0,1-2.588-.732Zm24.512-3.888h-5.034l3.893,3.888h1.141v-3.888Zm6.49,7.775H654.84a5.985,5.985,0,0,1-1.946-.32v29.479a1.881,1.881,0,0,0,1.946,1.944h48.671v-6.48H689.883a8.424,8.424,0,1,1,0-16.847h12.979a1.006,1.006,0,0,0,.649-0.648V615Zm2.6,10.172a4.713,4.713,0,0,1-3.244,1.492H689.883a4.536,4.536,0,1,0,0,9.071H704.16a1.947,1.947,0,0,0,1.946-1.943v-8.62Zm-17.521,4.084h2.6v3.888h-2.6V629.26Z" transform="translate(-640 -592.969)"/>
</svg>
